HIERARCHY
ROOT RootJoint
{
    OFFSET   0.000000   0.000000   0.000000
    CHANNELS 6 Xposition Yposition Zposition Xrotation Yrotation Zrotation
    JOINT pelvis_lowerback
    {
        OFFSET   0.000000   0.093605   0.000000
        CHANNELS 3 Xrotation Yrotation Zrotation
        JOINT lowerback_torso
        {
            OFFSET   0.000000   0.100000   0.000000
            CHANNELS 3 Xrotation Yrotation Zrotation
            JOINT torso_head
            {
                OFFSET   0.000000   0.282350   0.000000
                CHANNELS 3 Xrotation Yrotation Zrotation
                End Site
                {
                    OFFSET   0.000000   0.192650   0.000000
                }
            }
            JOINT rTorso_Clavicle
            {
                OFFSET  -0.001000   0.157500   0.000000
                CHANNELS 3 Xrotation Yrotation Zrotation
                JOINT rShoulder
                {
                    OFFSET  -0.117647   0.000000   0.000000
                    CHANNELS 3 Xrotation Yrotation Zrotation
                    JOINT rElbow
                    {
                        OFFSET  -0.245000   0.000000   0.000000
                        CHANNELS 3 Xrotation Yrotation Zrotation
                        JOINT rWrist
                        {
                            OFFSET  -0.240000   0.000000   0.000000
                            CHANNELS 3 Xrotation Yrotation Zrotation
                            End Site
                            {
                                OFFSET  -0.116353  -0.002500   0.000000
                            }
                        }
                    }
                }
            }
            JOINT lTorso_Clavicle
            {
                OFFSET   0.001000   0.157500   0.000000
                CHANNELS 3 Xrotation Yrotation Zrotation
                JOINT lShoulder
                {
                    OFFSET   0.117647   0.000000   0.000000
                    CHANNELS 3 Xrotation Yrotation Zrotation
                    JOINT lElbow
                    {
                        OFFSET   0.245000   0.000000   0.000000
                        CHANNELS 3 Xrotation Yrotation Zrotation
                        JOINT lWrist
                        {
                            OFFSET   0.240000   0.000000   0.000000
                            CHANNELS 3 Xrotation Yrotation Zrotation
                            End Site
                            {
                                OFFSET   0.116353  -0.002500   0.000000
                            }
                        }
                    }
                }
            }
        }
    }
    JOINT rHip
    {
        OFFSET  -0.100000  -0.051395   0.000000
        CHANNELS 3 Xrotation Yrotation Zrotation
        JOINT rKnee
        {
            OFFSET   0.000000  -0.410000   0.000000
            CHANNELS 3 Xrotation Yrotation Zrotation
            JOINT rAnkle
            {
                OFFSET   0.000000  -0.390000   0.000000
                CHANNELS 3 Xrotation Yrotation Zrotation
                JOINT rToeJoint
                {
                    OFFSET   0.000000  -0.050000   0.130000
                    CHANNELS 3 Xrotation Yrotation Zrotation
                    End Site
                    {
                        OFFSET  -0.010000   0.002000   0.060000
                    }
                }
            }
        }
    }
    JOINT lHip
    {
        OFFSET   0.100000  -0.051395   0.000000
        CHANNELS 3 Xrotation Yrotation Zrotation
        JOINT lKnee
        {
            OFFSET   0.000000  -0.410000   0.000000
            CHANNELS 3 Xrotation Yrotation Zrotation
            JOINT lAnkle
            {
                OFFSET   0.000000  -0.390000   0.000000
                CHANNELS 3 Xrotation Yrotation Zrotation
                JOINT lToeJoint
                {
                    OFFSET   0.000000  -0.050000   0.130000
                    CHANNELS 3 Xrotation Yrotation Zrotation
                    End Site
                    {
                        OFFSET   0.010000   0.002000   0.060000
                    }
                }
            }
        }
    }
}
MOTION
Frames: 12
Frame Time:   0.008333
 -2.376719   0.925631   3.975860   0.000000   0.000000   0.000000   0.000000   0.000000   0.000000   0.000000   0.000000   0.000000   0.000000   0.000000   0.000000   0.000000   0.000000   0.000000   0.000000   0.000000   0.000000   0.000000   0.000000   0.000000   0.000000   0.000000   0.000000   0.000000   0.000000   0.000000   0.000000   0.000000   0.000000   0.000000   0.000000   0.000000   0.000000   0.000000   0.000000   0.000000   0.000000   0.000000   0.000000   0.000000   0.000000   0.000000   0.000000   0.000000   0.000000   0.000000   0.000000   0.000000   0.000000   0.000000   0.000000   0.000000   0.000000   0.000000   0.000000   0.000000   0.000000   0.000000   0.000000
 -2.376603   0.926299   3.976080  -0.341347  -0.023580  -0.074180   0.339992   0.014508   0.097870   0.120879  -0.101769   0.018858  -0.139909   0.135093   0.088033   0.208141  -0.300548   0.484083   0.853012   0.287814   1.972136   0.023919   1.089339  -0.011405   0.327189  -0.466832  -2.956338   0.253597   0.356174  -0.553715   0.896978   0.018494  -1.993269   0.028209  -1.282881   0.014473   0.333884   0.360956   3.004131   0.201324   0.085460  -0.020765   0.575043   0.000478   0.000306  -0.659730  -0.171998  -0.019834  -0.151795  -0.000151   0.000145   0.168058  -0.036872   0.158337   0.849498  -0.000628  -0.000444  -0.890151   0.158796   0.097644   0.291792  -0.000461   0.000250
 -2.376434   0.927424   3.976443  -0.719943  -0.083578  -0.161103   0.650353   0.033999   0.212309   0.275072  -0.192181   0.057057  -0.255435   0.262810   0.184246   0.413380  -0.534136   1.713354   1.677460   0.658151   4.541784   0.055652   2.152686  -0.019622   0.691944  -0.597824  -5.191676   0.508151   0.659560  -1.867779   1.774861  -0.037207  -4.603327   0.065068  -2.522990   0.025048   0.712233   0.378457   5.269824   0.426255   0.166562  -0.114259   1.197266   0.001365   0.000332  -1.277661  -0.334133  -0.040589  -0.333674  -0.000440   0.000339   0.401424  -0.067981   0.396034   1.774499  -0.001749  -0.001057  -1.720790   0.308768   0.192512   0.526174  -0.000869   0.000323
 -2.376226   0.928571   3.976912  -1.079911  -0.162242  -0.249322   0.918869   0.053338   0.331328   0.409434  -0.274377   0.103689  -0.364056   0.381484   0.277969   0.608217  -0.708579   3.394880   2.466263   1.093741   7.504741   0.086886   3.156886  -0.024758   1.049844  -0.602421  -6.555362   0.753065   0.901159  -3.632605   2.630436  -0.164498  -7.614109   0.101049  -3.690798   0.032031   1.083775   0.279487   6.653714   0.637101   0.238732  -0.277051   1.790733   0.002388   0.000172  -1.854594  -0.486426  -0.062154  -0.508046  -0.000767   0.000511   0.658240  -0.094427   0.687497   2.669824  -0.003046  -0.001588  -2.495229   0.448247   0.283647   0.737571  -0.001239   0.000327
 -2.375996   0.929427   3.977466  -1.411879  -0.250192  -0.336452   1.151320   0.069471   0.451431   0.518284  -0.352616   0.155260  -0.469380   0.491922   0.366830   0.794014  -0.842757   5.328816   3.219369   1.587443  10.730928   0.113841   4.099717  -0.027626   1.395531  -0.550274  -7.262334   0.987716   1.094589  -5.643138   3.465637  -0.360683 -10.890576   0.131928  -4.786614   0.036422   1.442528   0.128983   7.379641   0.827731   0.303185  -0.497025   2.344305   0.003382  -0.000069  -2.393938  -0.629339  -0.084293  -0.675058  -0.001093   0.000648   0.924734  -0.116440   1.019573   3.518208  -0.004332  -0.001957  -3.218514   0.577894   0.370922   0.925576  -0.001540   0.000301
 -2.375753   0.929761   3.978092  -1.716228  -0.343812  -0.421747   1.353681   0.081108   0.571058   0.605156  -0.429058   0.210331  -0.570771   0.594776   0.450322   0.971752  -0.951036   7.381990   3.935732   2.132517  14.131287   0.135026   4.981885  -0.028880   1.726491  -0.473347  -7.521962   1.211413   1.252406  -7.764710   4.279906  -0.621178 -14.341294   0.156103  -5.812696   0.038982   1.786253  -0.045436   7.661399   0.998612   0.361259  -0.762202   2.858801   0.004258  -0.000335  -2.898158  -0.763274  -0.106727  -0.833887  -0.001391   0.000750   1.195347  -0.134298   1.382303   4.318345  -0.005501  -0.002173  -3.894188   0.698400   0.454313   1.092825  -0.001765   0.000263
 -2.375552   0.929388   3.978772  -1.995709  -0.440648  -0.501507   1.531164   0.088511   0.681619   0.675101  -0.503863   0.252090  -0.667506   0.690460   0.532990   1.142981  -1.044094   9.474562   4.614004   2.722935  17.651477   0.150186   5.805197  -0.029024   2.041031  -0.390034  -7.482072   1.426148   1.385385  -9.963132   5.029598  -0.925242 -17.745479   0.172706  -6.772875   0.039901   2.114574  -0.235490   7.571738   1.151713   0.413891  -1.061066   3.337096   0.004958  -0.000594  -3.369512  -0.888734  -0.129284  -0.984293  -0.001639   0.000818   1.466751  -0.148458   1.768279   5.072208  -0.006524  -0.002259  -4.525342   0.810327   0.533764   1.242079  -0.001922   0.000222
 -2.375401   0.927582   3.978928  -2.032684  -0.520231  -0.587639   1.565272   0.101487   0.823612   0.706747  -0.573766   0.250791  -0.929621   0.664590   0.555705   1.371154  -1.016080  10.897297   5.378994   3.300842  21.167989   0.165390   6.797144  -0.032625   2.298410  -0.330341  -6.407035   1.648461   1.460484 -11.405777   5.489308  -1.206390 -21.102897   0.183276  -7.824499   0.039484   2.388417  -0.454789   6.448267   0.939314   0.197625  -1.304998   4.013378   0.005786  -0.002438  -3.528356  -1.125868   0.064908  -0.983300  -0.001310   0.000649   1.505507  -0.072390   2.120263   5.314920  -0.005795  -0.001743  -5.042457   0.976330   0.648995   1.399238  -0.002052   0.000422
 -2.375272   0.924562   3.978840  -2.042462  -0.543960  -0.671912   1.635040   0.103709   0.960792   0.733767  -0.646660   0.256097  -1.187391   0.635222   0.566375   1.568738  -0.946918  12.065028   6.052067   3.906799  24.345644   0.170550   7.738260  -0.034981   2.563602  -0.179834  -5.360579   1.836283   1.488756 -12.548469   5.892434  -1.513031 -24.102634   0.183711  -8.820018   0.038494   2.652667  -0.745796   5.419364   0.720399  -0.020687  -1.509782   4.656577   0.006115  -0.003526  -3.669794  -1.351314   0.245222  -0.945678  -0.001008   0.000363   1.460394   0.000399   2.430142   5.439026  -0.004878  -0.001307  -5.531197   1.131125   0.758294   1.533481  -0.002019   0.000599
 -2.375146   0.920446   3.978631  -2.045631  -0.533554  -0.754374   1.728119   0.107916   1.095681   0.770018  -0.714183   0.272302  -1.424790   0.607630   0.573280   1.736471  -0.855937  13.044768   6.640789   4.519746  27.229098   0.168920   8.624856  -0.036177   2.823896   0.011468  -4.507622   1.995353   1.490474 -13.478249   6.246217  -1.828369 -26.802956   0.177675  -9.756399   0.036882   2.909294  -1.065606   4.624380   0.527733  -0.223649  -1.681757   5.258125   0.006096  -0.004036  -3.800896  -1.561869   0.413099  -0.907510  -0.000775   0.000152   1.359103   0.067854   2.698471   5.516971  -0.004025  -0.000972  -5.989460   1.274500   0.861439   1.653810  -0.001900   0.000735
 -2.374880   0.919474   3.978889  -2.173264  -0.656998  -0.217396   1.865334   0.168027   0.738169   0.854367  -0.736536   0.087477  -1.634516   0.583677   0.561750   1.881107  -0.740453  14.180659   7.150217   5.141522  29.984048   0.165167   9.453046  -0.035926   3.075692   0.188865  -3.828678   2.143877   1.496557 -14.435213   6.563656  -2.124122 -29.284315   0.169285 -10.613544   0.034596   3.148508  -1.295450   4.086692   0.498524  -0.397539  -2.393122   5.828509   0.005544  -0.004848  -3.912326  -1.761496   0.566341  -0.794047  -0.000593  -0.000379   1.160937   0.222422   2.122704   6.164838  -0.002998  -0.000443  -5.748778   1.462183   0.830613   1.821644  -0.001432   0.000934
 -2.375026   0.919541   3.979275  -2.263679  -0.615683  -0.156894   1.960016   0.170157   0.848238   0.916168  -0.789948   0.049573  -1.830995   0.559085   0.546397   2.023412  -0.648243  15.119169   7.605868   5.730510  32.508450   0.158128  10.225392  -0.034964   3.313255   0.372365  -3.144506   2.280202   1.494584 -15.332242   6.846554  -2.426643 -31.652520   0.158928 -11.424878   0.031746   3.378632  -1.556778   3.498664   0.398363  -0.414531  -2.467740   6.294423   0.004454  -0.003859  -4.146573  -1.773903   0.776488  -0.758224  -0.000536  -0.000303   1.067130   0.298495   2.079382   6.587068  -0.002411   0.000131  -5.953149   1.591028   0.894249   1.949008  -0.001224   0.001035
